<?xml version="1.0" encoding="UTF-8"?>
<!DOCTYPE svg PUBLIC "-//W3C//DTD SVG 1.1//EN" "http://www.w3.org/Graphics/SVG/1.1/DTD/svg11.dtd">
<!-- Creator: CorelDRAW X7 -->
<svg xmlns="http://www.w3.org/2000/svg" xml:space="preserve" width="21.1666mm" height="12.7mm" version="1.1" style="shape-rendering:geometricPrecision; text-rendering:geometricPrecision; image-rendering:optimizeQuality; fill-rule:evenodd; clip-rule:evenodd"
viewBox="0 0 2117 1270"
 xmlns:xlink="http://www.w3.org/1999/xlink">
 <defs>
  <style type="text/css">
   <![CDATA[
    .str0 {stroke:#FE0000;stroke-width:7.62}
    .fil0 {fill:#FE0000}
   ]]>
  </style>
 </defs>
 <g id="Camada_x0020_1">
  <metadata id="CorelCorpID_0Corel-Layer"/>
  <path class="fil0 str0" d="M749 661l34 -71c5,-8 5,-7 4,-11 0,-7 2,-7 2,-14 -1,-4 -1,-8 -1,-12 0,0 1,-1 2,-1l3 -1c2,0 7,0 7,0 6,-14 -3,-4 5,-15l-2 -4c-1,-3 0,-2 1,-5 0,0 0,-1 0,-1 0,0 -1,-2 -1,-2 6,0 6,3 10,-1 3,-3 4,-9 4,-11 2,-18 -4,-11 10,-16l2 -10c0,0 2,3 5,-5 1,-3 1,-8 3,-11 5,-1 2,-1 7,0 3,34 4,65 6,97l8 90c2,-1 7,2 3,-3l-2 8c1,0 1,-1 2,-1l4 -2c0,-1 0,-1 2,-1 0,2 -3,10 -3,10 -3,7 -3,-7 -3,8 -11,1 -3,3 -13,4 -4,0 -6,0 -8,1 -8,1 -30,0 -40,0 -11,0 -23,1 -34,0 -6,0 -12,0 -17,1 0,0 0,0 -1,0 -6,1 0,1 -9,0 3,-1 7,-3 8,-6 -1,0 -1,0 -2,0l-3 -1c-3,0 -3,0 -4,1 -3,2 -2,0 -3,4 -1,-11 6,-2 2,-12 2,0 5,4 9,-12 4,3 3,-3 3,5zm-493 -304l0 -11c-2,0 -2,0 -4,4 0,-1 0,-1 -1,-1l-2 -2c-3,-1 -22,0 -26,0l-87 4c-3,11 -1,1 -5,9 -1,1 -1,2 -1,2 0,0 -1,0 -1,1 -2,5 -1,6 -2,12l-32 149c-3,10 -4,23 -5,33 0,12 1,8 1,12l0 2c0,0 0,0 0,0 -1,4 -1,-2 -2,4 0,5 1,10 1,11 -5,8 -5,-2 -4,11l-3 -3c-1,0 1,0 -2,0l-4 39c0,1 0,1 0,2l1 4c-3,-2 -3,-3 -5,-6 2,16 5,3 4,16 0,7 -1,10 -3,16l-4 -7c6,-3 9,4 4,-14 -6,2 -2,2 -2,9 -3,-1 -2,-2 -3,-1 0,5 -1,8 -1,11 0,7 0,2 2,8 -2,0 -3,0 -5,0 0,0 0,0 -1,0 0,0 0,-1 0,-1l-2 11c-2,8 -9,40 -11,42 0,-6 1,-5 3,-10 3,4 1,9 3,10 1,0 1,-3 1,-4 2,-4 0,0 2,-3l4 -3c2,-4 -3,0 2,-3 4,-3 62,-1 72,-1 0,5 0,4 2,7 6,0 12,0 19,0 17,1 14,0 12,-5 1,3 1,3 1,4 2,7 -2,10 1,16 2,4 0,-2 2,3 -3,3 1,0 -2,1 -8,2 4,-4 -2,0 -1,7 1,-1 1,7 0,5 -1,6 0,11l-12 1c0,4 0,7 2,10l7 16c0,-7 13,-67 16,-79l4 -20c1,-2 0,-6 9,-6l87 0c7,0 6,1 13,1 0,5 2,10 3,14 2,5 3,9 4,14l11 42c2,5 3,9 4,14 10,37 31,106 38,140l271 0c4,-7 4,-5 4,-10 1,-26 4,-8 -1,-18 4,0 7,2 9,-2 2,-4 0,-5 -1,-10 1,0 3,-1 3,-1 3,-1 1,0 2,-1 3,-14 1,-5 4,-13 3,2 1,1 5,3 0,-3 0,-2 0,-4 0,-1 0,-1 0,-1 0,-1 0,-1 0,-1 3,-11 1,-9 1,-17 1,1 -2,-1 2,1 3,2 -2,-1 3,2 0,-4 0,-5 4,-8 1,0 4,-1 2,0 1,-3 2,-7 2,-10l1 -8c5,3 -2,1 5,3 0,-8 6,-5 3,-13 3,-1 2,3 4,-5 2,-7 0,-5 0,-9l4 3c5,-8 0,-9 15,-9 7,1 40,2 45,1 11,-3 -1,-3 21,-3 28,0 13,1 25,3 11,2 31,0 41,-2 5,-1 16,0 22,0l1 -4c0,0 -1,0 -1,0 6,0 12,-3 13,3l-10 0 3 3c3,2 4,1 7,3 1,4 0,16 0,23 0,5 1,6 1,11 1,23 3,36 3,61 -3,7 -1,14 0,21 0,11 3,8 15,8l116 0c6,-1 6,0 4,-18 -4,-40 -7,-87 -11,-128 -1,-7 -1,-15 -2,-21l-1 -17c0,-4 1,-3 -1,-3 -5,-7 -2,-5 -4,-13 -1,-3 -1,-3 -3,-5 -2,-2 0,-2 -3,-3 0,-6 1,-7 1,-12 0,-7 -3,-12 -3,-12l4 -1c0,-8 -1,-7 -2,-9 -3,-10 4,-17 0,-25 -3,1 -3,4 -3,4 0,-6 -2,-11 -2,-18 0,-7 2,-10 1,-15 0,-4 -2,-8 -1,-12 1,-4 3,-10 1,-18 -3,-18 -1,-38 -5,-49 -2,-3 -3,-3 -3,-6l1 -13c-1,-1 0,-2 -3,-2 4,-4 -2,-6 -1,-16 1,-5 4,-11 1,-19l-2 -1c0,0 -1,0 -1,0 0,0 -1,1 -1,1 0,-4 1,-8 3,-13 3,-9 1,-5 -2,-6 0,-5 0,-8 0,-12 0,-3 -1,-5 -1,-9 0,-7 1,-11 0,-16 0,-12 -1,-26 -2,-38l-4 0c1,-5 2,-8 1,-12 -1,-4 -2,-8 -5,-11l0 15c-5,-1 -3,0 -3,2l0 -20c-19,-1 -36,-3 -55,-3 -16,0 -104,-2 -112,2 -3,1 -2,0 -4,3 -1,2 -2,3 -3,5l-8 13c-3,10 5,11 5,12 0,2 0,3 -2,5l-3 2c-4,0 -1,0 -3,-3 -4,-4 2,-1 -5,-3 -1,16 2,4 -4,15l-2 4c0,0 0,0 -1,1l-1 3c-4,5 -6,4 -5,13l-4 0c-1,5 0,3 1,8 -6,2 -3,1 -6,6 -1,0 -2,2 -2,2l-3 6c-1,3 0,4 0,8 -1,6 2,2 -1,5 -2,3 -4,3 -9,0 4,5 0,2 -1,3 -4,1 -31,56 -35,65 -3,5 -5,9 -7,14l-166 325c-4,7 -12,22 -14,28 -6,-4 -12,-38 -14,-45l-59 -211c-4,-15 -4,-9 4,-20 4,-6 8,-11 12,-17 18,-28 43,-61 62,-89 8,-12 16,-23 25,-35l87 -124c5,-7 -6,-5 -21,-5 -40,0 -80,0 -120,0l-24 36c-3,4 -4,6 -7,9l-18 27c-2,3 -4,6 -7,9l-69 99c-4,7 -8,11 -12,18 -21,32 -18,26 -36,26l-87 0c0,-10 11,-66 14,-79l22 -103c2,-7 6,-21 4,-27z"/>
  <path class="fil0 str0" d="M1298 805c-118,0 -98,-122 -82,-201 3,-16 10,-36 16,-51l6 -14c2,-4 1,-3 3,-5 14,-28 26,-49 52,-69 3,-3 4,-4 7,-6 27,-16 48,-22 82,-22 83,0 97,76 88,142 -3,21 -7,48 -13,67 -3,10 -6,21 -9,30 -12,31 -21,51 -41,78 -26,33 -66,51 -109,51zm-71 -429c5,3 2,-1 3,7l-2 -1c-1,0 0,-1 -2,1 0,4 -1,0 1,4l2 2c0,-1 1,0 1,0l-13 -1c-1,4 -2,9 -3,14l-11 0c0,0 0,0 0,0 -3,2 1,-2 -2,2l-2 2c-2,3 -2,2 -3,5 0,0 0,1 0,1 -4,1 -6,1 -9,3 0,6 0,3 2,7 -4,1 -2,0 -5,2 -9,7 -3,1 -10,5l-3 3c-3,3 -3,5 -5,8 -2,3 -4,3 -7,6 1,6 0,0 2,5l-3 0c1,3 1,2 2,4l-10 1c-3,15 0,4 -4,10 0,0 0,1 0,1 4,5 3,3 3,14 -2,0 -3,1 -5,0l-5 -2c-3,1 -4,2 -4,7 0,2 0,2 0,4 0,2 1,0 0,2l-4 5c-2,1 -3,2 -5,4 -5,5 -4,8 -4,19 0,3 0,1 -3,3 1,14 4,-1 3,7 -1,3 0,1 -4,4l-1 1c-5,3 -10,-2 -8,15 -6,-2 -1,-1 -4,-2 -4,14 -2,1 -2,18 -2,1 -5,0 -6,4l-3 15c0,0 4,14 -4,19 -2,1 -1,0 -3,1 0,3 0,8 -1,11 -2,6 2,-4 -1,1l-1 2c0,0 -1,1 -1,1l-2 2c-3,2 -1,1 -2,5 0,2 -1,6 -2,9 -12,70 -14,146 27,207 2,4 13,19 18,19 5,1 6,1 8,5 5,1 -1,1 7,-2l-1 7c8,0 7,3 12,2l14 -1 0 14c4,-1 5,-1 8,-1 2,1 0,5 6,0 -1,3 -2,5 5,2 -1,3 -1,2 -3,6 5,0 6,-1 11,-1 1,2 0,3 0,5 3,1 7,1 11,2l5 2c7,0 3,-4 26,-2 24,3 13,0 22,0l73 0c9,0 1,-2 11,1l7 0c7,-2 13,-1 21,-4 1,-4 1,-1 1,-5 0,-5 0,1 -1,-4 9,-1 6,2 15,-1 6,-2 11,-2 17,-1 10,2 9,-7 9,-13 5,1 1,2 8,1 17,-3 13,0 18,-4 2,-3 -1,-1 2,-3 0,0 0,-1 0,-1 1,0 1,0 1,0 0,0 1,-1 1,-1 0,0 1,0 1,-1 -3,-2 -3,-2 -3,-5l3 3c0,0 0,1 0,1l3 -2c0,-1 0,-1 0,-1l2 -1c4,-3 2,4 4,-4 2,7 -1,2 5,4l0 -8c3,2 3,2 8,2l4 -8c2,0 4,3 9,-2 4,-5 -1,-2 0,-11 8,1 10,-1 17,-2 4,0 9,-7 16,-15 9,-9 28,-36 34,-47 2,-3 3,-6 6,-10 7,-13 15,-29 21,-44 18,-47 29,-90 36,-140 4,-25 3,-52 2,-76 0,-11 -5,-37 -8,-49l-3 -5c-6,-3 -4,0 -8,-3 -7,-6 -4,-12 -6,-25l-10 -1c-2,-5 -5,-3 -1,-10l-12 -3c0,-1 0,-2 -1,-2 -3,-8 1,-7 -6,-13 0,-1 -1,-1 -1,-1 0,-1 0,-1 -1,-1l-7 1c0,-22 -8,-8 -13,-12 -3,-2 2,-8 0,-10 -2,-2 -10,-3 -12,-3 1,-3 -3,-2 4,-2l-2 -4c0,-4 -7,-6 -13,-8 -53,-23 -126,-21 -181,-10l-35 10c-20,6 -30,13 -47,21 -6,3 -9,6 -14,8z"/>
  <path class="fil0 str0" d="M1741 376c0,1 -2,3 -3,4 -2,3 1,1 -4,3 0,0 1,0 1,1l3 1c1,1 1,2 2,4 -12,-5 -4,-2 -14,-2 -1,5 0,9 0,15 -5,0 0,-1 -4,-1 -1,0 -1,0 -1,0 0,0 -1,0 -1,0l-6 2c-1,0 -2,1 -3,1l0 12c-2,-1 0,-1 -3,-1 -5,0 0,0 -3,0 -4,1 0,0 -5,0 -1,4 -3,6 -3,8 0,4 1,3 1,5 -3,-3 -6,1 -9,4 0,0 0,1 0,1 0,0 -1,0 -1,1l-5 11c0,2 -1,8 0,10 -1,1 -4,1 -5,1l-7 4c-8,7 -16,58 -13,78 2,15 3,24 9,37 7,16 10,18 21,31l9 9c22,20 48,31 76,42l29 12c4,1 1,1 5,1 10,0 20,2 36,2 2,3 2,1 4,4 -2,5 -2,2 -5,6 11,5 17,1 20,4 2,3 -3,8 5,6 3,-4 -4,-6 0,-4 2,-3 0,-2 6,-1l0 9c2,1 1,1 3,1l14 2c6,0 2,-1 6,2l4 2c0,0 0,1 0,1l0 5c0,0 2,2 3,2 4,3 4,1 7,1 5,0 3,4 3,12 3,1 1,0 4,1 -1,5 -2,-1 -1,7 4,-2 3,-5 8,-3 -1,4 -3,4 -5,6 2,9 1,8 2,13 0,3 0,2 1,3 3,-1 1,1 3,-3 0,-2 0,-2 0,-4 0,-2 0,-4 0,-6 -1,8 1,10 1,15 0,0 2,-1 -3,0 -7,1 -5,5 -6,9 0,0 -1,1 -1,1 -6,13 1,5 -3,14 -5,10 1,-4 -2,3 0,0 -1,9 -7,10 -4,1 0,0 -2,0l-2 -1c-3,4 -1,3 -7,4l4 2c2,4 -2,1 -2,9 -4,0 -8,0 -12,0l-12 0c-5,-2 -8,1 -14,2 -28,6 -78,7 -105,-9 -4,-2 -3,-2 -6,-2 -14,-2 -4,-4 -11,-8 0,0 0,0 -1,0 0,8 2,2 1,4l-8 -1c0,-4 0,-8 0,-11 0,0 0,-4 0,-4l-1 -17c0,-5 1,-8 0,-12 -5,-2 -55,-1 -67,0 -2,0 -10,0 -11,1 -2,1 -2,5 -1,2 -7,-3 -22,-2 -30,1l-12 1 -1 13c-2,7 0,5 0,10 0,3 -1,4 -1,9l1 10c1,6 -2,10 -1,15 0,2 1,4 1,4l2 18 7 2c5,1 8,1 4,12l6 3c0,-1 0,-4 0,0l0 2c11,0 7,0 8,-2 0,2 -2,2 -3,7 1,0 1,1 2,1l1 0c3,0 0,0 0,0 0,-1 0,-1 0,-1l0 10c2,1 1,0 3,1l5 5c5,6 11,2 18,6 3,1 2,6 3,10 25,5 16,-1 22,-1 5,1 2,6 5,12 9,1 1,2 19,2 7,0 16,3 21,0 1,2 1,0 -3,3 -3,2 -3,-1 -2,3l10 1 -2 -7c2,2 0,0 2,4l3 -1c4,-3 7,-3 14,-2 7,0 9,1 17,1 3,0 8,0 10,0 5,1 1,0 4,1 9,3 10,-1 19,-1 11,0 28,1 38,0l18 -1c6,0 9,0 15,-1l-1 3 18 -3c6,-2 13,-4 15,-10l0 -3 29 -1c-1,4 1,3 -2,3 7,-1 28,-12 35,-17 4,-3 3,-3 3,-4 3,-6 0,-2 4,-5l13 -10 -2 -2 7 -5c0,0 0,0 1,0l4 -4c12,-11 3,-7 15,-17 -1,-2 -2,-4 -2,-5 0,-3 -2,4 0,-1 3,-6 3,-3 3,-12 6,0 6,1 11,1 1,-3 0,0 1,-3 1,-5 -1,0 4,-8 1,0 1,-1 2,-1l2 -2c0,-1 0,0 1,-1 0,0 0,2 3,-4 4,-10 15,-41 12,-49 0,-11 1,-18 1,-29 0,-4 0,-11 0,-15 0,-1 -1,-2 -2,-4 0,-2 -1,-2 -1,-3l-1 9 -7 -1 1 -3c2,-4 -1,-7 1,-11l1 -1c0,0 -1,0 -1,0l-3 -1c2,-6 3,2 2,-7 -1,-3 -1,-5 -2,-9 -1,-9 -3,-9 -12,-7 1,-4 0,-9 0,-12l-10 -5c-6,-10 -6,-12 -20,-11 -11,0 4,-1 -9,-2 0,-5 -2,-7 -4,-10 -9,-1 -12,-3 -22,-3 4,2 0,-1 5,-2 0,0 0,0 -1,-1 0,0 -1,0 -1,0 0,-1 -1,-1 -1,-1 -6,-4 0,2 -3,-2l-3 -6c-4,0 -10,2 -15,0l-3 -1c-1,0 -1,0 -1,0 0,0 -2,1 -5,1l-2 -9c0,0 0,-1 0,-2 -2,0 -5,-1 -7,-1 -8,-2 -2,-3 -10,-3 -4,0 -4,1 -6,2 -1,-6 -1,-2 -3,-5 -4,-8 -1,-8 -21,-8l4 -4c-8,0 -15,-5 -16,-6 -5,-4 -12,-4 -17,-4 -5,0 -5,-6 -9,-6 -2,0 1,0 -2,-2 -12,-11 -17,1 -20,-9 -2,-4 2,0 -3,-4 -5,-2 -11,-6 -13,-9 0,0 -1,0 -1,0l-1 -2c-1,-1 -2,-4 -3,-4 -3,1 -4,2 -6,1 0,-2 3,-3 5,-5 -7,0 -3,0 -5,-4 -1,-3 0,-1 -2,-3 -3,-4 0,3 -3,-3 -3,-4 -3,-24 -1,-29l7 -11c4,-9 11,-15 13,-24 0,0 0,-1 0,-1 1,-3 -2,1 1,-2 3,-3 1,0 2,0 5,0 5,-1 9,-3 5,-3 9,-3 14,-6l-8 -2c5,-2 9,-4 15,-4l1 4c0,0 1,-1 1,-1l2 -2c4,-2 11,-2 15,0l2 1 37 0c10,-5 15,0 22,-1 0,0 1,0 1,0l5 0c3,0 1,-1 4,0 0,0 1,1 2,2 0,0 0,0 1,0 4,2 4,1 4,0 -2,6 1,0 -2,4 -6,10 3,-6 -1,2 0,1 0,1 1,1 0,0 0,1 1,1l5 2c10,2 9,1 12,0 0,20 1,12 8,17 0,0 2,1 2,2 1,0 5,0 1,7 0,0 0,1 0,1l1 7c0,0 0,1 0,1l-2 19 124 0c1,-9 3,-26 2,-33 -3,-28 3,-26 -5,-50 -8,-22 -15,-22 -16,-31 -1,-4 1,0 -2,-4 -3,-6 -21,-19 -25,-22 -46,-29 -127,-31 -183,-25 -8,1 -16,2 -23,4l-23 5c-17,4 -57,20 -69,30 -5,4 -3,-1 -3,5z"/>
  <path class="fil0 str0" d="M169 780l-7 -16c-2,-3 -2,-6 -2,-10l12 -1c-1,-5 0,-6 0,-11 0,-8 -2,0 -1,-7 6,-4 -6,2 2,0 3,-1 -1,2 2,-1 -2,-5 0,1 -2,-3 -3,-6 1,-9 -1,-16 0,-1 0,-1 -1,-4 2,5 5,6 -12,5 -7,0 -13,0 -19,0 -2,-3 -2,-2 -2,-7 -10,0 -68,-2 -72,1 -5,3 0,-1 -2,3l-4 3c-2,3 0,-1 -2,3 0,1 0,4 -1,4 -2,-1 0,-6 -3,-10 -2,5 -3,4 -3,10 2,-2 9,-34 11,-42l2 -11c0,0 0,1 0,1 1,0 1,0 1,0 2,0 3,0 5,0 -2,-6 -2,-1 -2,-8 0,-3 1,-6 1,-11 1,-1 0,0 3,1 0,-7 -4,-7 2,-9 5,18 2,11 -4,14l4 7c2,-6 3,-9 3,-16 1,-13 -2,0 -4,-16 2,3 2,4 5,6l-1 -4c0,-1 0,-1 0,-2l4 -39c3,0 1,0 2,0l3 3c-1,-13 -1,-3 4,-11 0,-1 -1,-6 -1,-11 1,-6 1,0 2,-4 0,0 0,0 0,0l0 -2c0,-4 -1,0 -1,-12 1,-10 2,-23 5,-33l32 -149c1,-6 0,-7 2,-12 0,-1 1,-1 1,-1 0,0 0,-1 1,-2 4,-8 2,2 5,-9l87 -4c4,0 23,-1 26,0l2 2c1,0 1,0 1,1 2,-4 2,-4 4,-4l0 11c4,-3 3,-5 5,-14 -6,-3 -21,-1 -29,-1l-101 0c-1,3 -2,6 -3,9 0,5 -1,7 -2,10 -2,8 -3,14 -4,21l-80 375c-10,42 -19,91 -29,135 -2,11 0,8 28,8 34,0 67,0 101,0 5,-20 9,-39 13,-59l6 -31c2,-8 4,-23 8,-30z"/>
  <path class="fil0 str0" d="M1929 888c3,0 1,1 2,-3l-29 1 0 3c-2,6 -9,8 -15,10l-18 3 1 -3c-6,1 -9,1 -15,1l-18 1c-10,1 -27,0 -38,0 -9,0 -10,4 -19,1 -3,-1 1,0 -4,-1 -2,0 -7,0 -10,0 -8,0 -10,-1 -17,-1 -7,-1 -10,-1 -14,2l-3 1c-2,-4 0,-2 -2,-4l2 7 -10 -1c-1,-4 -1,-1 2,-3 4,-3 4,-1 3,-3 -5,3 -14,0 -21,0 -18,0 -10,-1 -19,-2 -3,-6 0,-11 -5,-12 -6,0 3,6 -22,1 -1,-4 0,-9 -3,-10 -7,-4 -13,0 -18,-6l-5 -5c-2,-1 -1,0 -3,-1l0 -10c0,0 0,0 0,1 0,0 3,0 0,0l-1 0c-1,0 -1,-1 -2,-1 1,-5 3,-5 3,-7 -1,2 3,2 -8,2l0 -2c0,-4 0,-1 0,0l-6 -3c4,-11 1,-11 -4,-12l-7 -2 -2 -18c0,0 -1,-2 -1,-4 -1,-5 2,-9 1,-15l-1 -10c0,-5 1,-6 1,-9 0,-5 -2,-3 0,-10l1 -13 12 -1c8,-3 23,-4 30,-1 -1,3 -1,-1 1,-2 1,-1 9,-1 11,-1 12,-1 62,-2 67,0 1,4 0,7 0,12l1 17c0,0 0,4 0,4 0,3 0,7 0,11l8 1c1,-2 -1,4 -1,-4 1,0 1,0 1,0 7,4 -3,6 11,8 -6,-16 -18,-7 -14,-52 -11,-3 -100,-2 -124,-1 -10,0 -9,2 -10,10 -3,23 -5,36 0,58 5,22 13,39 29,55 9,9 12,11 23,18 30,19 82,30 116,29 9,0 13,2 20,2 15,0 61,-4 77,-7 22,-3 49,-10 66,-19z"/>
  <path class="fil0 str0" d="M1122 862c2,5 3,5 8,9l23 15c2,1 2,2 5,3 47,23 108,27 160,22 37,-4 87,-19 118,-38 17,-10 30,-20 45,-34 6,-5 5,-1 8,-9 -7,1 -9,3 -17,2 -1,9 4,6 0,11 -5,5 -7,2 -9,2l-4 8c-5,0 -5,0 -8,-2l0 8c-6,-2 -3,3 -5,-4 -2,8 0,1 -4,4l-2 1c0,0 0,0 0,1l-3 2c0,0 0,-1 0,-1l-3 -3c0,3 0,3 3,5 0,1 -1,1 -1,1 0,0 -1,1 -1,1 0,0 0,0 -1,0 0,0 0,1 0,1 -3,2 0,0 -2,3 -5,4 -1,1 -18,4 -7,1 -3,0 -8,-1 0,6 1,15 -9,13 -6,-1 -11,-1 -17,1 -9,3 -6,0 -15,1 1,5 1,-1 1,4 0,4 0,1 -1,5 -8,3 -14,2 -21,4l-7 0c-10,-3 -2,-1 -11,-1l-73 0c-9,0 2,3 -22,0 -23,-2 -19,2 -26,2l-5 -2c-4,-1 -8,-1 -11,-2 0,-2 1,-3 0,-5 -5,0 -6,1 -11,1 2,-4 2,-3 3,-6 -7,3 -6,1 -5,-2 -6,5 -4,1 -6,0 -3,0 -4,0 -8,1l0 -14 -14 1c-5,1 -4,-2 -12,-2l1 -7c-8,3 -2,3 -7,2 -2,-4 -3,-4 -8,-5z"/>
  <path class="fil0 str0" d="M722 456c1,-1 5,2 1,-3 5,3 7,3 9,0 3,-3 0,1 1,-5 0,-4 -1,-5 0,-8l3 -6c0,0 1,-2 2,-2 3,-5 0,-4 6,-6 -1,-5 -2,-3 -1,-8l4 0c-1,-9 1,-8 5,-13l1 -3c1,-1 1,-1 1,-1l2 -4c6,-11 3,1 4,-15 7,2 1,-1 5,3 2,3 -1,3 3,3l3 -2c2,-2 2,-3 2,-5 0,-1 -8,-2 -5,-12l8 -13c1,-2 2,-3 3,-5 2,-3 1,-2 4,-3 8,-4 96,-2 112,-2 19,0 36,2 55,3l0 20c0,-2 -2,-3 3,-2l0 -15c3,3 4,7 5,11 1,4 0,7 -1,12l4 0c1,12 2,26 2,38 1,5 0,9 0,16 0,4 1,6 1,9 0,4 0,7 0,12 3,1 5,-3 2,6 -2,5 -3,9 -3,13 0,0 1,-1 1,-1 0,0 1,0 1,0l2 1c3,8 0,14 -1,19 -1,10 5,12 1,16 3,0 2,1 3,2l-1 13c0,3 1,3 3,6 4,11 2,31 5,49 2,8 0,14 -1,18 -1,4 1,8 1,12 1,5 -1,8 -1,15 0,7 2,12 2,18 0,0 0,-3 3,-4 4,8 -3,15 0,25 1,2 2,1 2,9l-4 1c0,0 3,5 3,12 0,5 -1,6 -1,12 3,1 1,1 3,3 2,2 2,2 3,5 2,8 -1,6 4,13l-11 -136c-3,-21 -6,-76 -8,-101 -1,-8 -11,-131 -13,-133 -2,-3 -169,-1 -182,-1 -1,6 -10,21 -13,27l-34 68c-3,5 -5,11 -8,14l0 5z"/>
  <path class="fil0 str0" d="M787 579c2,-2 3,-1 5,-6 9,-17 42,-90 48,-94l6 72c2,12 2,26 3,37l5 74c1,12 0,9 -31,9l-60 0c-8,0 -12,-1 -19,-1 2,-4 3,-5 5,-9 0,-8 1,-2 -3,-5 -4,16 -7,12 -9,12 4,10 -3,1 -2,12 1,-4 0,-2 3,-4 1,-1 1,-1 4,-1l3 1c1,0 1,0 2,0 -1,3 -5,5 -8,6 9,1 3,1 9,0 1,0 1,0 1,0 5,-1 11,-1 17,-1 11,1 23,0 34,0 10,0 32,1 40,0 2,-1 4,-1 8,-1 10,-1 2,-3 13,-4 0,-15 0,-1 3,-8 0,0 3,-8 3,-10 -2,0 -2,0 -2,1l-4 2c-1,0 -1,1 -2,1l2 -8c4,5 -1,2 -3,3l-8 -90c-2,-32 -3,-63 -6,-97 -5,-1 -2,-1 -7,0 -2,3 -2,8 -3,11 -3,8 -5,5 -5,5l-2 10c-14,5 -8,-2 -10,16 0,2 -1,8 -4,11 -4,4 -4,1 -10,1 0,0 1,2 1,2 0,0 0,1 0,1 -1,3 -2,2 -1,5l2 4c-8,11 1,1 -5,15 0,0 -5,0 -7,0l-3 1c-1,0 -2,1 -2,1 0,4 0,8 1,12 0,7 -2,7 -2,14z"/>
  <path class="fil0 str0" d="M2046 739c5,-4 0,2 2,-3 0,0 1,-4 1,-4 3,-15 1,-47 -5,-62 -8,-17 -21,-34 -36,-43 -27,-18 -54,-26 -80,-39 -5,-3 -9,-4 -14,-6 -8,-4 -90,-40 -96,-44 -8,-6 -14,-11 -20,-21 -14,-25 0,-59 32,-75 18,-9 24,-7 32,-10l-2 -1c-4,-2 -11,-2 -15,0l-2 2c0,0 -1,1 -1,1l-1 -4c-6,0 -10,2 -15,4l8 2c-5,3 -9,3 -14,6 -4,2 -4,3 -9,3 -1,0 1,-3 -2,0 -3,3 0,-1 -1,2 0,0 0,1 0,1 -2,9 -9,15 -13,24l-7 11c-2,5 -2,25 1,29 3,6 0,-1 3,3 2,2 1,0 2,3 2,4 -2,4 5,4 -2,2 -5,3 -5,5 2,1 3,0 6,-1 1,0 2,3 3,4l1 2c0,0 1,0 1,0 2,3 8,7 13,9 5,4 1,0 3,4 3,10 8,-2 20,9 3,2 0,2 2,2 4,0 4,6 9,6 5,0 12,0 17,4 1,1 8,6 16,6l-4 4c20,0 17,0 21,8 2,3 2,-1 3,5 2,-1 2,-2 6,-2 8,0 2,1 10,3 2,0 5,1 7,1 0,1 0,2 0,2l2 9c3,0 5,-1 5,-1 0,0 0,0 1,0l3 1c5,2 11,0 15,0l3 6c3,4 -3,-2 3,2 0,0 1,0 1,1 0,0 1,0 1,0 1,1 1,1 1,1 -5,1 -1,4 -5,2 10,0 13,2 22,3 2,3 4,5 4,10 13,1 -2,2 9,2 14,-1 14,1 20,11l10 5c0,3 1,8 0,12 9,-2 11,-2 12,7 1,4 1,6 2,9 1,9 0,1 -2,7l3 1c0,0 1,0 1,0l-1 1c-2,4 1,7 -1,11l-1 3 7 1 1 -9c0,1 1,1 1,3 1,2 2,3 2,4 0,4 0,11 0,15 0,11 -1,18 -1,29z"/>
  <path class="fil0 str0" d="M633 890l51 -100c2,-5 4,-10 10,-12l84 0c21,0 70,-2 85,2 0,15 3,29 3,45 0,6 0,7 1,11l1 30c1,7 -1,2 3,5 0,-25 -2,-38 -3,-61 0,-5 -1,-6 -1,-11 0,-7 1,-19 0,-23 -3,-2 -4,-1 -7,-3l-3 -3 10 0c-1,-6 -7,-3 -13,-3 0,0 1,0 1,0l-1 4c-6,0 -17,-1 -22,0 -10,2 -30,4 -41,2 -12,-2 3,-3 -25,-3 -22,0 -10,0 -21,3 -5,1 -38,0 -45,-1 -15,0 -10,1 -15,9l-4 -3c0,4 2,2 0,9 -2,8 -1,4 -4,5 3,8 -3,5 -3,13 -7,-2 0,0 -5,-3l-1 8c0,3 -1,7 -2,10 2,-1 -1,0 -2,0 -4,3 -4,4 -4,8 -5,-3 0,0 -3,-2 -4,-2 -1,0 -2,-1 0,8 2,6 -1,17 0,0 0,0 0,1 0,0 0,0 0,1 0,2 0,1 0,4 -4,-2 -2,-1 -5,-3 -3,8 -1,-1 -4,13 -1,1 1,0 -2,1 0,0 -2,1 -3,1 1,5 3,6 1,10 -2,4 -5,2 -9,2 5,10 2,-8 1,18z"/>
  <path class="fil0 str0" d="M1081 622l2 -2c0,0 1,-1 1,-1l1 -2c3,-5 -1,5 1,-1 1,-3 1,-8 1,-11 2,-1 1,0 3,-1 8,-5 4,-19 4,-19l3 -15c1,-4 4,-3 6,-4 0,-17 -2,-4 2,-18 3,1 -2,0 4,2 -2,-17 3,-12 8,-15l1 -1c4,-3 3,-1 4,-4 1,-8 -2,7 -3,-7 3,-2 3,0 3,-3 0,-11 -1,-14 4,-19 2,-2 3,-3 5,-4l4 -5c1,-2 0,0 0,-2 0,-2 0,-2 0,-4 0,-5 1,-6 4,-7l5 2c2,1 3,0 5,0 0,-11 1,-9 -3,-14 0,0 0,-1 0,-1 4,-6 1,5 4,-10l10 -1c-1,-2 -1,-1 -2,-4l3 0c-2,-5 -1,1 -2,-5 3,-3 5,-3 7,-6 2,-3 2,-5 5,-8l3 -3c7,-4 1,2 10,-5 3,-2 1,-1 5,-2 -2,-4 -2,-1 -2,-7 3,-2 5,-2 9,-3 0,0 0,-1 0,-1 1,-3 1,-2 3,-5l2 -2c3,-4 -1,0 2,-2 0,0 0,0 0,0l11 0c1,-5 2,-10 3,-14l13 1c0,0 -1,-1 -1,0l-2 -2c-2,-4 -1,0 -1,-4 2,-2 1,-1 2,-1l2 1c-1,-8 2,-4 -3,-7 -12,9 -22,16 -33,27 -7,7 -4,1 -13,13 -9,11 -14,13 -28,32 -12,18 -18,27 -28,46 -3,5 -6,9 -8,16 -5,12 -10,21 -15,35 -8,26 -17,47 -21,77z"/>
  <path class="fil0 str0" d="M1871 804l12 0c4,0 8,0 12,0 0,-8 4,-5 2,-9l-4 -2c6,-1 4,0 7,-4l2 1c2,0 -2,1 2,0 6,-1 7,-10 7,-10 3,-7 -3,7 2,-3 4,-9 -3,-1 3,-14 0,0 1,-1 1,-1 1,-4 -1,-8 6,-9 5,-1 3,0 3,0 0,-5 -2,-7 -1,-15 0,2 0,4 0,6 0,2 0,2 0,4 -2,4 0,2 -3,3 -1,-1 -1,0 -1,-3 -1,-5 0,-4 -2,-13 2,-2 4,-2 5,-6 -5,-2 -4,1 -8,3 -1,-8 0,-2 1,-7 -3,-1 -1,0 -4,-1 0,-8 2,-12 -3,-12 -3,0 -3,2 -7,-1 -1,0 -3,-2 -3,-2l0 -5c0,0 0,-1 0,-1l-4 -2c-4,-3 0,-2 -6,-2l-14 -2c-2,0 -1,0 -3,-1l0 -9c-6,-1 -4,-2 -6,1 -4,-2 3,0 0,4 -8,2 -3,-3 -5,-6 -3,-3 -9,1 -20,-4 3,-4 3,-1 5,-6 -2,-3 -2,-1 -4,-4 -16,0 -26,-2 -36,-2 0,0 0,0 1,0 1,4 -1,1 4,4l55 24c19,7 46,18 47,41 1,18 -5,34 -16,46l-15 11c-6,3 -9,3 -12,8z"/>
  <path class="fil0 str0" d="M1899 432c5,2 10,1 14,2 21,5 39,15 47,36 4,13 1,16 1,29 6,0 8,1 15,1 25,0 103,2 115,-1 2,-22 7,-36 2,-67 -2,-11 -4,-19 -8,-28 -4,-7 -9,-18 -16,-21 1,9 8,9 16,31 8,24 2,22 5,50 1,7 -1,24 -2,33l-124 0 2 -19c0,0 0,-1 0,-1l-1 -7c0,0 0,-1 0,-1 4,-7 0,-7 -1,-7 0,-1 -2,-2 -2,-2 -7,-5 -8,3 -8,-17 -3,1 -2,2 -12,0l-5 -2c-1,0 -1,-1 -1,-1 -1,0 -1,0 -1,-1 4,-8 -5,8 1,-2 3,-4 0,2 2,-4 0,1 0,2 -4,0 -1,0 -1,0 -1,0 -1,-1 -2,-2 -2,-2 -3,-1 -1,0 -4,0l-5 0c0,0 -1,0 -1,0 -7,1 -12,-4 -22,1z"/>
  <path class="fil0 str0" d="M1593 444c-1,-15 -20,-44 -28,-54 -6,-6 -14,-14 -21,-19 -7,-6 -17,-15 -27,-16l2 4c-7,0 -3,-1 -4,2 2,0 10,1 12,3 2,2 -3,8 0,10 5,4 13,-10 13,12l7 -1c1,0 1,0 1,1 0,0 1,0 1,1 7,6 3,5 6,13 1,0 1,1 1,2l12 3c-4,7 -1,5 1,10l10 1c2,13 -1,19 6,25 4,3 2,0 8,3z"/>
  <path class="fil0 str0" d="M1671 460l7 -4c1,0 4,0 5,-1 -1,-2 0,-8 0,-10l5 -11c0,-1 1,-1 1,-1 0,0 0,-1 0,-1 3,-3 6,-7 9,-4 0,-2 -1,-1 -1,-5 0,-2 2,-4 3,-8 5,0 1,1 5,0 3,0 -2,0 3,0 3,0 1,0 3,1l0 -12c1,0 2,-1 3,-1l6 -2c0,0 1,0 1,0 0,0 0,0 1,0 4,0 -1,1 4,1 0,-6 -1,-10 0,-15 10,0 2,-3 14,2 -1,-2 -1,-3 -2,-4l-3 -1c0,-1 -1,-1 -1,-1 5,-2 2,0 4,-3 1,-1 3,-3 3,-4 -6,-2 -9,4 -17,11 -23,19 -44,44 -53,73z"/>
  <path class="fil0 str0" d="M1967 867c6,-1 2,0 7,-3l14 -11c6,-5 18,-19 24,-26 5,-7 18,-25 19,-35 -1,1 -1,0 -1,1l-2 2c-1,0 -1,1 -2,1 -5,8 -3,3 -4,8 -1,3 0,0 -1,3 -5,0 -5,-1 -11,-1 0,9 0,6 -3,12 -2,5 0,-2 0,1 0,1 1,3 2,5 -12,10 -3,6 -15,17l-4 4c-1,0 -1,0 -1,0l-7 5 2 2 -13 10c-4,3 -1,-1 -4,5z"/>
 </g>
</svg>
